<svg xmlns="http://www.w3.org/2000/svg" xmlns:xlink="http://www.w3.org/1999/xlink" viewBox="0,0,256,256" width="40px" height="40px" fill-rule="nonzero"><g transform="translate(32,32) scale(0.75,0.75)"><g fill="none" fill-rule="nonzero" stroke="none" stroke-width="1" stroke-linecap="butt" stroke-linejoin="miter" stroke-miterlimit="10" stroke-dasharray="" stroke-dashoffset="0" font-family="none" font-weight="none" font-size="none" text-anchor="none" style="mix-blend-mode: normal"><g transform="scale(6.4,6.4)"><path d="M37.005,31.5c-0.975,0 -1.91,-0.463 -2.502,-1.237l-5.599,-7.321l-5.6,7.321c-0.592,0.774 -1.527,1.237 -2.502,1.237h-2.22l8.433,-11.028l-8.39,-10.972h2.22c0.975,0 1.911,0.462 2.502,1.236l5.556,7.266l5.557,-7.266c0.591,-0.774 1.527,-1.236 2.502,-1.236h2.22l-8.391,10.972l8.434,11.028z" fill="#b0c1d4"></path><path d="M38.17,10l-8.008,10.472l8.051,10.528h-1.208c-0.825,0 -1.604,-0.385 -2.105,-1.04l-5.996,-7.841l-5.996,7.841c-0.501,0.656 -1.28,1.04 -2.105,1.04h-1.208l8.051,-10.528l-8.01,-10.472h1.208c0.825,0 1.604,0.385 2.105,1.04l5.954,7.785l5.954,-7.785c0.501,-0.656 1.28,-1.04 2.105,-1.04h1.208M40.194,9h-2.024h-1.208c-1.129,0 -2.213,0.536 -2.899,1.433l-5.159,6.747l-5.159,-6.747c-0.687,-0.897 -1.771,-1.433 -2.9,-1.433h-1.208h-2.024l1.229,1.607l7.544,9.865l-7.586,9.92l-1.23,1.608h2.024h1.208c1.129,0 2.213,-0.536 2.899,-1.433l5.202,-6.803l5.202,6.803c0.686,0.897 1.77,1.433 2.9,1.433h1.208h2.024l-1.229,-1.607l-7.586,-9.92l7.544,-9.865l1.228,-1.608z" fill="#66798f"></path><g><path d="M10,32.5c-5.238,0 -9.5,-4.409 -9.5,-9.828v-4.345c0,-5.418 4.262,-9.827 9.5,-9.827c5.238,0 9.5,4.408 9.5,9.827v4.172l-16,0.001v0.172c0,3.765 2.916,6.828 6.5,6.828c1.977,0 3.893,-0.996 5.125,-2.663c0.628,-0.851 1.551,-1.338 2.532,-1.338h1.469l-0.248,0.673c-1.394,3.785 -4.961,6.328 -8.878,6.328zM16.5,19.5v-1.173c0,-3.765 -2.916,-6.827 -6.5,-6.827c-3.584,0 -6.5,3.062 -6.5,6.827v1.173z" fill="#b0c1d4"></path><path d="M10,9c4.962,0 9,4.185 9,9.327v3.673h-16v0.672c0,4.041 3.14,7.328 7,7.328c2.188,0 4.223,-1.102 5.527,-2.866c0.508,-0.687 1.275,-1.134 2.13,-1.134h0.752c0,0 0,0 0.001,0.001c-1.322,3.588 -4.704,6 -8.41,6c-4.962,0 -9,-4.185 -9,-9.328v-4.345c0,-5.143 4.038,-9.328 9,-9.328M3,20h14v-1.673c0,-4.04 -3.14,-7.327 -7,-7.327c-3.86,0 -7,3.287 -7,7.327v1.673M10,8c-5.514,0 -10,4.633 -10,10.327v4.345c0,5.695 4.486,10.328 10,10.328c4.125,0 7.881,-2.674 9.348,-6.654l0.495,-1.344l-1.432,-0.002h-0.753c-1.142,0 -2.211,0.561 -2.935,1.54c-1.139,1.54 -2.904,2.46 -4.723,2.46c-3.204,0 -5.83,-2.663 -5.992,-6h14.992h1v-1v-3.672c0,-5.695 -4.486,-10.328 -10,-10.328zM4,19v-0.673c0,-3.489 2.692,-6.327 6,-6.327c3.308,0 6,2.838 6,6.327v0.673h-12z" fill="#66798f"></path></g></g></g><g fill="#66798f" fill-rule="nonzero" stroke="none" stroke-width="1" stroke-linecap="butt" stroke-linejoin="miter" stroke-miterlimit="10" stroke-dasharray="" stroke-dashoffset="0" font-family="none" font-weight="none" font-size="none" text-anchor="none" style="mix-blend-mode: normal"><g><path d="M-32.88667,279.27333v-53.76h31.87v9.37h-21.35v12.52h19.43v9.37h-19.43v13.13h21.73v9.37zM3.20333,279.27333l12.45,-19.66l-11.52,-18.74h11.9l4.99,8.22l2.15,5.37l2.31,-5.37l5.22,-8.22h10.83l-11.6,18.43l12.37,19.97h-11.6l-5.92,-9.22l-2.3,-5.68l-2.46,5.68l-5.91,9.22zM47.29333,294.63333v-53.76h7.29l1.16,4.61h0.3c1.33333,-1.94667 2.91,-3.38 4.73,-4.3c1.81333,-0.92667 4.02667,-1.39 6.64,-1.39v0c4.81333,0 8.42333,1.52333 10.83,4.57c2.40667,3.04667 3.61,7.95 3.61,14.71v0c0,3.28 -0.38333,6.23667 -1.15,8.87c-0.77333,2.64 -1.91333,4.88 -3.42,6.72c-1.51333,1.84667 -3.35667,3.25667 -5.53,4.23c-2.18,0.97333 -4.67667,1.46 -7.49,1.46v0c-1.58667,0 -2.89333,-0.11667 -3.92,-0.35c-1.02,-0.23333 -2.04333,-0.60333 -3.07,-1.11v0v15.74zM64.41333,248.24333v0c-1.94,0 -3.46333,0.48667 -4.57,1.46c-1.1,0.97333 -1.95667,2.43333 -2.57,4.38v0v15.97c0.72,0.56667 1.5,1.01667 2.34,1.35c0.84667,0.33333 1.96,0.5 3.34,0.5v0c2.87333,0 5.02667,-1.01333 6.46,-3.04c1.43333,-2.02 2.15,-5.36 2.15,-10.02v0c0,-3.38 -0.56333,-5.99 -1.69,-7.83c-1.12667,-1.84667 -2.94667,-2.77 -5.46,-2.77zM111.26333,240.87333l-1.3,9.37c-1.58667,-0.56667 -3.02,-0.85 -4.3,-0.85v0c-1.79333,0 -3.29333,0.47667 -4.5,1.43c-1.2,0.94667 -2.00667,2.16 -2.42,3.64v0v24.81h-9.98v-38.4h7.76l1.15,5.07h0.31c0.86667,-1.89333 2.04333,-3.35333 3.53,-4.38c1.48667,-1.02 3.22667,-1.53 5.22,-1.53v0c1.33333,0 2.84333,0.28 4.53,0.84zM143.13333,269.44333l3.31,6.53c-1.54,1.22667 -3.62667,2.26333 -6.26,3.11c-2.64,0.84667 -5.44333,1.27 -8.41,1.27v0c-6.2,0 -10.73333,-1.80667 -13.6,-5.42c-2.86667,-3.60667 -4.3,-8.56 -4.3,-14.86v0c0,-6.76 1.61333,-11.83 4.84,-15.21c3.22667,-3.38 7.75667,-5.07 13.59,-5.07v0c1.94667,0 3.84333,0.25667 5.69,0.77c1.84,0.51333 3.47667,1.36 4.91,2.54c1.43333,1.17333 2.58667,2.76 3.46,4.76c0.86667,1.99333 1.3,4.47667 1.3,7.45v0c0,1.07333 -0.06333,2.22333 -0.19,3.45c-0.12667,1.23333 -0.31667,2.51333 -0.57,3.84v0h-23.04c0.15333,3.22667 0.98333,5.66 2.49,7.3c1.51333,1.64 3.96,2.46 7.34,2.46v0c2.1,0 3.98,-0.32 5.64,-0.96c1.66667,-0.64 2.93333,-1.29333 3.8,-1.96zM132.15333,247.78333v0c-2.61333,0 -4.54667,0.78 -5.8,2.34c-1.25333,1.56667 -2.00667,3.65333 -2.26,6.26v0h14.28c0.20667,-2.76 -0.21667,-4.88333 -1.27,-6.37c-1.04667,-1.48667 -2.69667,-2.23 -4.95,-2.23zM170.63333,268.67333v0c0,-1.02 -0.43667,-1.84 -1.31,-2.46c-0.86667,-0.61333 -1.94,-1.17667 -3.22,-1.69c-1.28,-0.50667 -2.69,-1.03 -4.23,-1.57c-1.53333,-0.54 -2.94,-1.28333 -4.22,-2.23c-1.28,-0.94667 -2.35667,-2.15 -3.23,-3.61c-0.86667,-1.46 -1.3,-3.34 -1.3,-5.64v0c0,-3.78667 1.12667,-6.68 3.38,-8.68c2.25333,-2 5.50333,-3 9.75,-3v0c2.92,0 5.55667,0.31 7.91,0.93c2.35333,0.61333 4.19667,1.30333 5.53,2.07v0l-2.23,7.22c-1.17333,-0.46 -2.65667,-0.94667 -4.45,-1.46c-1.79333,-0.51333 -3.61,-0.77 -5.45,-0.77v0c-2.97333,0 -4.46,1.15333 -4.46,3.46v0c0,0.92 0.43667,1.66333 1.31,2.23c0.86667,0.56 1.94,1.08333 3.22,1.57c1.28,0.48667 2.69,1.01 4.23,1.57c1.53333,0.56667 2.94,1.29667 4.22,2.19c1.28,0.9 2.35667,2.06667 3.23,3.5c0.86667,1.43333 1.3,3.27667 1.3,5.53v0c0,3.88667 -1.24,6.94333 -3.72,9.17c-2.48667,2.23333 -6.21333,3.35 -11.18,3.35v0c-2.71333,0 -5.26,-0.34667 -7.64,-1.04c-2.38,-0.69333 -4.31333,-1.5 -5.8,-2.42v0l2.77,-7.45c1.17333,0.66667 2.73333,1.32 4.68,1.96c1.94667,0.64 3.94333,0.96 5.99,0.96v0c1.48667,0 2.67667,-0.28333 3.57,-0.85c0.9,-0.56 1.35,-1.50667 1.35,-2.84zM203.04333,268.67333v0c0,-1.02 -0.43667,-1.84 -1.31,-2.46c-0.86667,-0.61333 -1.94,-1.17667 -3.22,-1.69c-1.28,-0.50667 -2.69,-1.03 -4.23,-1.57c-1.53333,-0.54 -2.94,-1.28333 -4.22,-2.23c-1.28,-0.94667 -2.35667,-2.15 -3.23,-3.61c-0.86667,-1.46 -1.3,-3.34 -1.3,-5.64v0c0,-3.78667 1.12667,-6.68 3.38,-8.68c2.25333,-2 5.50333,-3 9.75,-3v0c2.92,0 5.55667,0.31 7.91,0.93c2.35333,0.61333 4.19667,1.30333 5.53,2.07v0l-2.23,7.22c-1.17333,-0.46 -2.65667,-0.94667 -4.45,-1.46c-1.79333,-0.51333 -3.61,-0.77 -5.45,-0.77v0c-2.97333,0 -4.46,1.15333 -4.46,3.46v0c0,0.92 0.43667,1.66333 1.31,2.23c0.86667,0.56 1.94,1.08333 3.22,1.57c1.28,0.48667 2.69,1.01 4.23,1.57c1.53333,0.56667 2.94,1.29667 4.22,2.19c1.28,0.9 2.35667,2.06667 3.23,3.5c0.86667,1.43333 1.3,3.27667 1.3,5.53v0c0,3.88667 -1.24,6.94333 -3.72,9.17c-2.48667,2.23333 -6.21333,3.35 -11.18,3.35v0c-2.71333,0 -5.26,-0.34667 -7.64,-1.04c-2.38,-0.69333 -4.31333,-1.5 -5.8,-2.42v0l2.77,-7.45c1.17333,0.66667 2.73333,1.32 4.68,1.96c1.94667,0.64 3.94333,0.96 5.99,0.96v0c1.48667,0 2.67667,-0.28333 3.57,-0.85c0.9,-0.56 1.35,-1.50667 1.35,-2.84zM225.23333,262.14333v-36.63h10.52v39.32c0,2.04667 -0.23,3.99333 -0.69,5.84c-0.46,1.84 -1.21333,3.46667 -2.26,4.88c-1.05333,1.40667 -2.39667,2.53 -4.03,3.37c-1.64,0.84667 -3.63667,1.27 -5.99,1.27v0c-1.48667,0 -3.1,-0.15333 -4.84,-0.46c-1.74,-0.30667 -3.25,-0.74 -4.53,-1.3v0l2.3,-8.61c1.33333,0.66667 2.84333,1 4.53,1v0c2.15333,0 3.52333,-0.79333 4.11,-2.38c0.58667,-1.58667 0.88,-3.68667 0.88,-6.3zM268.62333,264.83333v0c0,-1.64 -0.6,-2.97 -1.8,-3.99c-1.2,-1.02667 -2.71,-1.96333 -4.53,-2.81c-1.82,-0.84 -3.79,-1.71 -5.91,-2.61c-2.12667,-0.89333 -4.1,-1.99333 -5.92,-3.3c-1.81333,-1.30667 -3.32333,-2.93333 -4.53,-4.88c-1.2,-1.94 -1.8,-4.42333 -1.8,-7.45v0c0,-2.60667 0.43333,-4.87 1.3,-6.79c0.87333,-1.92 2.11667,-3.52 3.73,-4.8c1.61333,-1.28 3.52,-2.22667 5.72,-2.84c2.2,-0.62 4.65667,-0.93 7.37,-0.93v0c3.12667,0 6.07,0.27 8.83,0.81c2.76667,0.54 5.04667,1.32 6.84,2.34v0l-3.3,8.84c-1.12667,-0.72 -2.81667,-1.37333 -5.07,-1.96c-2.25333,-0.59333 -4.68667,-0.89 -7.3,-0.89v0c-2.46,0 -4.34,0.48667 -5.64,1.46c-1.30667,0.97333 -1.96,2.28 -1.96,3.92v0c0,1.53333 0.6,2.81333 1.8,3.84c1.20667,1.02667 2.71667,1.97333 4.53,2.84c1.82,0.87333 3.79333,1.77 5.92,2.69c2.12,0.92 4.09,2.03333 5.91,3.34c1.82,1.30667 3.33,2.92 4.53,4.84c1.20667,1.92 1.81,4.31333 1.81,7.18v0c0,2.86667 -0.47333,5.33667 -1.42,7.41c-0.95333,2.07333 -2.28667,3.8 -4,5.18c-1.71333,1.38667 -3.78667,2.41333 -6.22,3.08c-2.43333,0.66667 -5.10667,1 -8.02,1v0c-3.84,0 -7.22,-0.36 -10.14,-1.08c-2.92,-0.72 -5.07,-1.43667 -6.45,-2.15v0l3.38,-8.99c0.56,0.30667 1.28667,0.64 2.18,1c0.9,0.36 1.91333,0.69333 3.04,1c1.12667,0.30667 2.31667,0.56333 3.57,0.77c1.25333,0.20667 2.54667,0.31 3.88,0.31v0c3.12,0 5.51333,-0.52667 7.18,-1.58c1.66,-1.04667 2.49,-2.64667 2.49,-4.8z"></path></g></g></g></svg>