<svg version="1.1" id="Layer_1" xmlns="http://www.w3.org/2000/svg" xmlns:xlink="http://www.w3.org/1999/xlink" x="0px" y="0px"
	 width="100%" viewBox="0 0 1001 1160" enable-background="new 0 0 1001 1160" xml:space="preserve">
<path fill="#47704C" opacity="1.000000" stroke="none" 
	d="
M1002.000000,419.000000 
	C1002.000000,666.666687 1002.000000,913.833313 1002.000000,1161.000000 
	C668.333313,1161.000000 334.666656,1161.000000 1.000000,1161.000000 
	C1.000000,774.333313 1.000000,387.666656 1.000000,1.000000 
	C334.666656,1.000000 668.333313,1.000000 1002.000000,1.000000 
	C1002.000000,140.166672 1002.000000,279.333344 1002.000000,419.000000 
M374.244385,1077.645996 
	C375.375580,1077.660156 376.974243,1078.153320 377.546539,1077.594727 
	C379.009155,1076.167114 377.728424,1067.858398 375.647369,1065.267578 
	C370.955688,1063.940552 366.338043,1061.942383 361.558105,1061.415161 
	C348.403198,1059.963623 335.873505,1061.612915 325.914276,1071.611694 
	C319.381134,1078.170776 316.419342,1086.492676 315.381531,1095.403931 
	C313.958344,1107.624390 315.691101,1119.404175 323.169495,1129.584595 
	C335.689240,1146.627808 360.580994,1145.418823 375.575958,1139.104004 
	C378.184967,1138.005493 379.277557,1128.276855 377.021240,1126.746948 
	C376.451752,1126.360962 375.276062,1126.663330 374.448944,1126.896851 
	C369.447601,1128.309326 364.524017,1130.044189 359.467163,1131.203003 
	C348.071625,1133.814575 334.239227,1126.948730 332.095703,1116.145508 
	C330.733154,1109.278320 329.544769,1102.038940 330.256226,1095.171387 
	C331.548401,1082.698364 340.030792,1072.219482 354.359589,1073.156616 
	C360.926727,1073.586060 367.383820,1075.698120 374.244385,1077.645996 
M125.998192,652.498047 
	C142.047729,659.526978 157.875702,667.132019 174.212082,673.415222 
	C189.140839,679.156921 204.588242,683.569153 219.877045,688.343262 
	C224.038940,689.642822 225.711349,691.079712 224.107910,695.895508 
	C221.847092,702.685547 220.351028,709.774170 219.052231,716.831604 
	C216.149170,732.606323 213.287094,748.399048 210.952164,764.264465 
	C209.196472,776.194031 207.468292,788.228149 207.175873,800.250977 
	C206.617035,823.227173 206.462601,846.206604 210.865494,869.019348 
	C215.468445,892.868652 222.449173,915.431885 237.867981,934.872681 
	C252.021576,952.718079 271.308319,960.491272 292.778076,963.272217 
	C302.115814,964.481628 311.975616,963.222107 321.408966,961.814819 
	C342.738403,958.632812 362.932434,951.533691 382.380066,942.258850 
	C402.121216,932.844055 420.943451,921.843811 438.524261,908.863403 
	C452.249847,898.729370 465.786835,888.300293 478.910370,877.403503 
	C488.832886,869.164429 497.970245,859.979736 507.500610,851.175720 
	C515.604675,858.877991 523.300598,866.973755 531.806885,874.102539 
	C546.277283,886.229797 560.659546,898.618164 576.181763,909.293030 
	C593.823608,921.425598 612.215942,932.667419 631.137024,942.680786 
	C648.620178,951.933167 667.441101,958.429626 687.181091,961.591370 
	C703.027100,964.129395 718.794250,964.508606 734.465881,960.223328 
	C757.399048,953.952393 772.846497,938.693726 783.728149,918.471558 
	C798.424622,891.160217 803.419250,861.254211 804.820374,830.754211 
	C805.519714,815.528870 804.747314,800.193542 803.880798,784.951233 
	C803.106567,771.333618 802.005310,757.654968 799.751770,744.220764 
	C796.806702,726.664185 792.826111,709.264771 788.728027,691.930908 
	C787.812622,688.059021 789.000305,687.315369 791.918396,686.518066 
	C797.434937,685.010864 802.990234,683.598328 808.407532,681.782715 
	C837.775818,671.939636 866.565247,660.765625 893.964355,646.106812 
	C914.879456,634.917114 934.911072,622.424133 952.602966,606.665710 
	C968.795715,592.242554 983.257446,576.184265 991.711853,555.670288 
	C996.621277,543.757996 999.347107,531.316772 997.818848,518.545837 
	C995.146301,496.211304 984.062134,477.800385 969.039307,461.565613 
	C954.502930,445.856476 938.260925,432.034180 919.660156,421.515198 
	C900.564392,410.716248 881.285767,399.918701 861.118042,391.420319 
	C836.788574,381.168213 811.439148,373.336609 786.084656,364.298126 
	C786.139038,364.801392 785.958679,364.285675 786.051453,363.824951 
	C789.763306,345.396759 793.977417,327.053680 797.086853,308.525116 
	C799.719238,292.838867 802.279236,276.972656 802.726074,261.125580 
	C803.452942,235.350967 804.123169,209.500580 799.148438,183.859100 
	C795.151062,163.255417 789.364380,143.477036 777.897034,125.727684 
	C769.634888,112.939590 759.026978,102.338989 745.007568,96.221077 
	C730.354370,89.826645 714.794373,87.087990 698.786926,90.047394 
	C685.950623,92.420525 672.889160,94.310493 660.505798,98.238014 
	C638.227722,105.303734 617.544861,116.218613 597.886841,128.774353 
	C565.590454,149.402313 536.017029,173.509308 508.888458,200.595551 
	C507.983643,201.498962 506.953644,202.276978 506.178833,202.944000 
	C496.937469,194.633316 487.963318,186.561127 478.987152,178.491165 
	C460.879242,162.211365 441.464111,147.690323 421.048065,134.403931 
	C395.631714,117.863441 369.092072,103.821808 339.653992,95.930496 
	C323.089478,91.490128 306.428741,88.816803 289.012360,90.820312 
	C260.154236,94.140053 240.150665,109.336624 226.915649,134.427261 
	C217.454346,152.363785 212.079956,171.566803 209.978790,191.697159 
	C208.904068,201.993469 207.469330,212.290039 207.145157,222.616257 
	C206.818085,233.035446 207.267746,243.522598 208.085327,253.924316 
	C209.438431,271.139038 210.536285,288.440674 213.257034,305.463501 
	C216.421646,325.263550 221.217560,344.802856 225.375458,364.791595 
	C220.247772,366.403625 214.701004,368.287231 209.074768,369.892242 
	C182.909927,377.356201 157.371567,386.576447 132.760284,398.146423 
	C109.717125,408.979187 87.472694,421.305725 67.459969,437.244049 
	C53.723633,448.183868 41.059631,460.175323 30.824253,474.612579 
	C21.459690,487.821503 15.053829,502.271576 13.208549,518.299133 
	C11.495728,533.176270 14.973769,547.499329 21.498322,560.861938 
	C31.053741,580.432007 45.308918,596.241455 61.746494,610.378113 
	C81.167191,627.080444 102.572151,640.604065 125.998192,652.498047 
M580.000000,1062.500000 
	C580.000000,1054.079102 580.000000,1045.658081 580.000000,1037.310791 
	C574.610229,1037.310791 570.018372,1037.310791 564.976807,1037.310791 
	C564.976807,1064.986084 564.976807,1092.355347 564.976807,1119.724609 
	C558.414673,1109.305176 552.684509,1098.686035 547.015869,1088.034302 
	C538.534912,1072.097900 530.138000,1056.116333 521.568054,1040.228271 
	C520.835999,1038.870972 519.123352,1037.233398 517.781982,1037.154297 
	C512.023376,1036.814697 506.233215,1037.009277 500.381165,1037.009277 
	C500.381165,1071.964355 500.381165,1106.336670 500.381165,1140.704834 
	C505.357361,1140.704834 509.949219,1140.704834 515.067139,1140.704834 
	C515.067139,1113.227417 515.067139,1086.039062 515.067139,1058.850708 
	C519.699646,1065.461548 523.412231,1072.283203 527.026550,1079.156494 
	C537.412170,1098.906250 547.735596,1118.688965 558.179688,1138.407715 
	C558.759888,1139.503174 560.182007,1140.831787 561.258057,1140.873657 
	C567.355347,1141.110596 573.466614,1140.988281 580.000000,1140.988281 
	C580.000000,1114.753662 580.000000,1089.126831 580.000000,1062.500000 
M129.087540,1127.367188 
	C122.516266,1115.081421 118.511711,1101.145386 106.446220,1092.658081 
	C108.986839,1090.965454 111.399078,1089.556274 113.591011,1087.862183 
	C121.239822,1081.950195 122.217773,1073.654907 122.063538,1064.739868 
	C121.814499,1050.345459 112.103363,1038.972656 97.849220,1038.110962 
	C83.945824,1037.270752 69.986740,1037.347290 56.051399,1037.055786 
	C55.450668,1037.043091 54.842731,1037.375122 54.293579,1037.530884 
	C54.293579,1072.019043 54.293579,1106.275391 54.293579,1140.615234 
	C59.301605,1140.615234 64.010330,1140.615234 69.153175,1140.615234 
	C69.153175,1126.307495 69.153175,1112.378784 69.153175,1098.000488 
	C75.383476,1098.000488 81.180779,1097.905273 86.973640,1098.024780 
	C94.095840,1098.171875 99.248711,1101.567749 102.562347,1107.866577 
	C107.852318,1117.922119 113.121964,1127.989868 118.587097,1137.949829 
	C119.312477,1139.271851 121.066193,1140.729492 122.458145,1140.855103 
	C126.677849,1141.235596 130.953796,1140.992676 135.908218,1140.992676 
	C133.545609,1136.202515 131.522705,1132.101074 129.087540,1127.367188 
M208.104645,1076.463745 
	C205.688538,1073.630737 203.589645,1070.426758 200.794632,1068.036865 
	C193.501251,1061.800537 184.643875,1060.326538 175.393234,1061.035889 
	C158.389374,1062.339722 144.906830,1073.365723 142.115143,1090.598633 
	C141.066177,1097.073730 140.463989,1103.861328 141.194092,1110.333008 
	C142.570694,1122.535645 148.440506,1132.489624 159.732117,1138.247192 
	C175.899582,1146.491211 192.238647,1143.910278 208.437195,1138.124756 
	C209.519745,1137.738037 210.752579,1136.137207 210.869797,1134.993896 
	C211.200256,1131.770996 210.985245,1128.492065 210.985245,1125.360962 
	C210.031540,1125.198975 209.670532,1125.024658 209.388870,1125.110596 
	C208.456314,1125.394775 207.538101,1125.739258 206.639587,1126.119995 
	C196.567612,1130.388916 186.368210,1133.189087 175.183029,1131.071655 
	C163.624573,1128.883545 154.235016,1117.418945 155.668228,1105.800781 
	C174.977020,1105.800781 194.359985,1105.800781 213.684067,1105.800781 
	C214.547028,1095.519165 212.786560,1085.928955 208.104645,1076.463745 
M905.463318,1061.000000 
	C886.711243,1060.212036 869.797913,1073.170898 867.948303,1092.060059 
	C867.369873,1097.966553 866.557190,1103.999756 867.157349,1109.840942 
	C868.417847,1122.110962 874.123474,1132.106079 885.340820,1138.022705 
	C901.449158,1146.519043 917.831482,1143.865234 934.089905,1138.321289 
	C935.303406,1137.907593 936.699158,1136.158936 936.857422,1134.887329 
	C937.253967,1131.700806 936.988342,1128.431885 936.988342,1125.317505 
	C935.921143,1125.176514 935.556824,1125.018799 935.274902,1125.111450 
	C934.346008,1125.417114 933.443115,1125.804077 932.536987,1126.176514 
	C922.591614,1130.264648 912.562073,1133.345093 901.533081,1131.052368 
	C888.799377,1128.405151 882.308594,1120.400146 881.293030,1106.000000 
	C883.120728,1106.000000 884.924255,1106.000000 886.727844,1106.000000 
	C902.725708,1105.999878 918.725403,1105.868408 934.720276,1106.087524 
	C938.973511,1106.145752 940.557678,1104.691040 940.003418,1100.612183 
	C939.650024,1098.010864 939.189819,1095.413574 939.025513,1092.798828 
	C937.873718,1074.465332 925.097229,1061.121216 905.463318,1061.000000 
M627.530701,1143.000000 
	C637.880615,1143.933350 646.538086,1140.530151 653.748657,1131.607788 
	C653.944092,1135.393188 654.076355,1137.954346 654.215637,1140.651978 
	C658.877563,1140.651978 663.259399,1140.651978 667.009094,1140.651978 
	C667.009094,1123.398438 667.652893,1106.467896 666.844360,1089.607178 
	C665.857483,1069.026978 653.447327,1061.978516 636.066650,1061.012939 
	C626.043457,1060.456055 616.570984,1062.919922 607.235474,1066.525635 
	C607.235474,1070.450562 607.235474,1074.356201 607.235474,1076.977661 
	C616.895386,1075.664673 626.449280,1074.129395 636.058716,1073.125732 
	C645.869751,1072.100830 654.973999,1081.952026 653.417358,1092.000488 
	C645.032654,1092.000488 636.560364,1091.757202 628.108948,1092.072388 
	C620.412781,1092.359131 612.770996,1094.516479 607.651550,1100.228760 
	C599.716858,1109.082153 598.989319,1119.725708 603.922668,1130.477539 
	C608.330811,1140.084595 616.600098,1143.211548 627.530701,1143.000000 
M258.638550,1092.000122 
	C253.525681,1092.973633 248.084473,1093.143433 243.361786,1095.072266 
	C229.471481,1100.745361 227.402618,1112.260620 229.521851,1124.853271 
	C231.018295,1133.745361 236.417206,1140.111938 245.555283,1141.941650 
	C259.129669,1144.659912 272.061615,1144.151245 281.781006,1130.891968 
	C281.956543,1134.757568 282.088013,1137.652954 282.223114,1140.628174 
	C286.602478,1140.628174 290.645691,1140.628174 295.000000,1140.628174 
	C295.000000,1132.282959 295.125458,1124.303711 294.969055,1116.329956 
	C294.761230,1105.732788 295.031372,1095.058105 293.804138,1084.567993 
	C292.578827,1074.093994 286.272400,1066.523926 276.066895,1063.137817 
	C261.744080,1058.385498 247.934250,1061.867798 234.372894,1066.384521 
	C234.372894,1070.652344 234.372894,1074.687378 234.372894,1079.177979 
	C243.562653,1074.889282 252.588135,1072.421631 262.384369,1072.929199 
	C273.507568,1073.505493 281.853882,1079.402222 281.521027,1092.000000 
	C274.226288,1092.000000 266.916260,1092.000000 258.638550,1092.000122 
M804.529785,1131.041748 
	C805.008118,1132.433350 805.641541,1133.792847 805.935730,1135.222412 
	C806.826721,1139.552124 809.012695,1141.625488 813.782227,1141.094727 
	C817.885071,1140.638184 822.079041,1141.000000 826.517334,1141.000000 
	C836.183411,1115.159180 845.808289,1089.428589 855.694214,1063.000122 
	C851.601868,1063.000122 848.568542,1063.359375 845.659424,1062.911743 
	C841.770874,1062.313110 840.330994,1064.534302 839.258423,1067.461304 
	C833.470459,1083.257324 827.740845,1099.074707 821.934021,1114.863892 
	C820.602783,1118.483643 819.046509,1122.020630 817.189941,1126.589600 
	C809.021606,1104.664185 801.289917,1083.911133 793.655762,1063.419678 
	C788.609802,1063.419678 783.927612,1063.419678 779.061157,1063.419678 
	C787.513611,1086.030640 795.803101,1108.205688 804.529785,1131.041748 
M693.000000,1102.499878 
	C693.000488,1108.497192 692.623657,1114.524536 693.096130,1120.484497 
	C693.699829,1128.099731 695.114075,1135.626587 703.492981,1138.977661 
	C713.090515,1142.816162 722.982483,1140.362915 732.686584,1140.910522 
	C732.686584,1136.936035 732.686584,1133.674805 732.686584,1129.998535 
	C727.750671,1129.998535 723.093262,1130.308594 718.492493,1129.929932 
	C710.428406,1129.266235 706.845459,1128.100220 706.961426,1118.414917 
	C707.117004,1105.422363 707.000061,1092.426636 707.000122,1079.432251 
	C707.000122,1077.690186 707.000122,1075.948120 707.000122,1073.778809 
	C716.103821,1073.778809 724.368286,1073.778809 732.579712,1073.778809 
	C732.579712,1069.960083 732.579712,1066.588135 732.579712,1062.784668 
	C723.903870,1062.784668 715.644226,1062.784668 706.785400,1062.784668 
	C706.785400,1055.300415 706.785400,1048.243164 706.785400,1041.328369 
	C701.905701,1041.328369 697.647278,1041.328369 692.794922,1041.328369 
	C692.794922,1048.702637 692.794922,1055.764160 692.794922,1062.817749 
	C689.586609,1062.973511 686.983643,1063.099854 684.397339,1063.225464 
	C684.397339,1067.023804 684.397339,1070.403564 684.397339,1073.821533 
	C687.393005,1073.971191 689.993835,1074.101318 693.000000,1074.251587 
	C693.000000,1083.575317 693.000000,1092.537720 693.000000,1102.499878 
M430.436493,1063.000000 
	C424.354218,1063.000000 418.271973,1063.000000 411.781708,1063.000000 
	C411.781708,1055.236084 411.781708,1048.307373 411.781708,1041.419434 
	C407.293274,1041.419434 403.252594,1041.419434 398.787933,1041.419434 
	C398.787933,1048.767090 398.787933,1055.698486 398.787933,1063.218384 
	C395.310181,1063.218384 392.252838,1063.218384 389.318115,1063.218384 
	C389.318115,1067.089722 389.318115,1070.353394 389.318115,1074.210205 
	C392.678253,1074.210205 395.728149,1074.210205 399.000397,1074.210205 
	C399.000397,1090.468262 398.587524,1106.132324 399.146423,1121.761597 
	C399.515350,1132.078247 402.980194,1138.371704 412.410004,1139.806641 
	C420.978577,1141.110840 429.770203,1140.949463 438.639526,1141.443970 
	C438.639526,1137.075928 438.639526,1133.704468 438.639526,1129.998291 
	C433.640411,1129.998291 428.927734,1130.514526 424.370941,1129.891113 
	C414.746307,1128.574585 413.487152,1128.735352 413.020691,1119.451782 
	C412.563721,1110.357910 412.253387,1101.254761 412.027679,1092.151855 
	C411.880676,1086.222656 412.000000,1080.286865 412.000000,1073.759155 
	C421.392090,1073.759155 430.111725,1073.759155 438.660706,1073.759155 
	C438.660706,1069.880737 438.660706,1066.620850 438.660706,1063.000000 
	C436.021210,1063.000000 433.716980,1063.000000 430.436493,1063.000000 
M749.000000,1073.533203 
	C749.000000,1095.946289 749.000000,1118.359375 749.000000,1140.678345 
	C754.078308,1140.678345 758.338196,1140.678345 762.590393,1140.678345 
	C762.590393,1114.645752 762.590393,1088.937012 762.590393,1063.324463 
	C757.916260,1063.324463 753.656555,1063.324463 749.000000,1063.324463 
	C749.000000,1066.611816 749.000000,1069.579834 749.000000,1073.533203 
M749.000000,1038.621582 
	C749.000000,1042.345825 749.000000,1046.069946 749.000000,1049.985718 
	C753.123352,1049.985718 756.455261,1050.232422 759.714905,1049.854858 
	C760.891052,1049.718750 762.750977,1048.148560 762.827881,1047.122559 
	C763.168823,1042.571289 762.975586,1037.979858 762.975586,1033.210571 
	C758.131104,1033.210571 753.894531,1033.210571 749.313171,1033.210571 
	C749.201477,1034.800537 749.100891,1036.232788 749.000000,1038.621582 
z"/>
<path fill="#00D8FF" opacity="1.000000" stroke="none" 
	d="
M125.681122,652.292542 
	C102.572151,640.604065 81.167191,627.080444 61.746494,610.378113 
	C45.308918,596.241455 31.053741,580.432007 21.498322,560.861938 
	C14.973769,547.499329 11.495728,533.176270 13.208549,518.299133 
	C15.053829,502.271576 21.459690,487.821503 30.824253,474.612579 
	C41.059631,460.175323 53.723633,448.183868 67.459969,437.244049 
	C87.472694,421.305725 109.717125,408.979187 132.760284,398.146423 
	C157.371567,386.576447 182.909927,377.356201 209.074768,369.892242 
	C214.701004,368.287231 220.247772,366.403625 225.375458,364.791595 
	C221.217560,344.802856 216.421646,325.263550 213.257034,305.463501 
	C210.536285,288.440674 209.438431,271.139038 208.085327,253.924316 
	C207.267746,243.522598 206.818085,233.035446 207.145157,222.616257 
	C207.469330,212.290039 208.904068,201.993469 209.978790,191.697159 
	C212.079956,171.566803 217.454346,152.363785 226.915649,134.427261 
	C240.150665,109.336624 260.154236,94.140053 289.012360,90.820312 
	C306.428741,88.816803 323.089478,91.490128 339.653992,95.930496 
	C369.092072,103.821808 395.631714,117.863441 421.048065,134.403931 
	C441.464111,147.690323 460.879242,162.211365 478.987152,178.491165 
	C487.963318,186.561127 496.937469,194.633316 506.178833,202.944000 
	C506.953644,202.276978 507.983643,201.498962 508.888458,200.595551 
	C536.017029,173.509308 565.590454,149.402313 597.886841,128.774353 
	C617.544861,116.218613 638.227722,105.303734 660.505798,98.238014 
	C672.889160,94.310493 685.950623,92.420525 698.786926,90.047394 
	C714.794373,87.087990 730.354370,89.826645 745.007568,96.221077 
	C759.026978,102.338989 769.634888,112.939590 777.897034,125.727684 
	C789.364380,143.477036 795.151062,163.255417 799.148438,183.859100 
	C804.123169,209.500580 803.452942,235.350967 802.726074,261.125580 
	C802.279236,276.972656 799.719238,292.838867 797.086853,308.525116 
	C793.977417,327.053680 789.763306,345.396759 786.051453,363.824951 
	C785.958679,364.285675 786.139038,364.801392 786.084656,364.298126 
	C811.439148,373.336609 836.788574,381.168213 861.118042,391.420319 
	C881.285767,399.918701 900.564392,410.716248 919.660156,421.515198 
	C938.260925,432.034180 954.502930,445.856476 969.039307,461.565613 
	C984.062134,477.800385 995.146301,496.211304 997.818848,518.545837 
	C999.347107,531.316772 996.621277,543.757996 991.711853,555.670288 
	C983.257446,576.184265 968.795715,592.242554 952.602966,606.665710 
	C934.911072,622.424133 914.879456,634.917114 893.964355,646.106812 
	C866.565247,660.765625 837.775818,671.939636 808.407532,681.782715 
	C802.990234,683.598328 797.434937,685.010864 791.918396,686.518066 
	C789.000305,687.315369 787.812622,688.059021 788.728027,691.930908 
	C792.826111,709.264771 796.806702,726.664185 799.751770,744.220764 
	C802.005310,757.654968 803.106567,771.333618 803.880798,784.951233 
	C804.747314,800.193542 805.519714,815.528870 804.820374,830.754211 
	C803.419250,861.254211 798.424622,891.160217 783.728149,918.471558 
	C772.846497,938.693726 757.399048,953.952393 734.465881,960.223328 
	C718.794250,964.508606 703.027100,964.129395 687.181091,961.591370 
	C667.441101,958.429626 648.620178,951.933167 631.137024,942.680786 
	C612.215942,932.667419 593.823608,921.425598 576.181763,909.293030 
	C560.659546,898.618164 546.277283,886.229797 531.806885,874.102539 
	C523.300598,866.973755 515.604675,858.877991 507.500610,851.175720 
	C497.970245,859.979736 488.832886,869.164429 478.910370,877.403503 
	C465.786835,888.300293 452.249847,898.729370 438.524261,908.863403 
	C420.943451,921.843811 402.121216,932.844055 382.380066,942.258850 
	C362.932434,951.533691 342.738403,958.632812 321.408966,961.814819 
	C311.975616,963.222107 302.115814,964.481628 292.778076,963.272217 
	C271.308319,960.491272 252.021576,952.718079 237.867981,934.872681 
	C222.449173,915.431885 215.468445,892.868652 210.865494,869.019348 
	C206.462601,846.206604 206.617035,823.227173 207.175873,800.250977 
	C207.468292,788.228149 209.196472,776.194031 210.952164,764.264465 
	C213.287094,748.399048 216.149170,732.606323 219.052231,716.831604 
	C220.351028,709.774170 221.847092,702.685547 224.107910,695.895508 
	C225.711349,691.079712 224.038940,689.642822 219.877045,688.343262 
	C204.588242,683.569153 189.140839,679.156921 174.212082,673.415222 
	C157.875702,667.132019 142.047729,659.526978 125.681122,652.292542 
M534.230774,696.995361 
	C536.170227,696.664795 538.101013,696.114136 540.050415,696.037842 
	C558.588196,695.312012 577.128723,694.655273 595.669495,694.007812 
	C599.372192,693.878540 602.646484,693.013977 604.758423,689.611145 
	C619.171814,666.386780 634.292786,643.567200 647.841309,619.849182 
	C664.676453,590.377563 680.173462,560.142639 696.373779,530.305481 
	C698.073975,527.174316 698.022339,524.737366 696.324646,521.620667 
	C680.792175,493.105469 666.059082,464.132599 649.795166,436.044617 
	C635.370483,411.132935 619.371033,387.128387 603.804871,362.891541 
	C602.544678,360.929352 599.383423,359.627167 596.887573,359.143738 
	C592.547913,358.303192 588.042480,358.253540 583.598694,358.027557 
	C569.558960,357.313599 555.516785,356.148773 541.473267,356.114777 
	C515.377625,356.051605 489.276947,356.500519 463.185150,357.055603 
	C446.970734,357.400574 430.757599,358.155396 414.572571,359.179413 
	C411.945312,359.345612 408.554474,361.247070 407.071472,363.411743 
	C398.652252,375.700928 390.684357,388.300201 382.602264,400.819366 
	C358.200287,438.618195 336.878204,478.133179 316.777924,518.349731 
	C313.880249,524.147339 313.653229,528.866577 316.770660,534.592285 
	C330.027649,558.941284 342.175507,583.925903 356.180237,607.827698 
	C372.642242,635.923401 390.581329,663.154907 407.993439,690.689270 
	C408.906738,692.133545 410.810089,693.726196 412.372162,693.860657 
	C423.059937,694.780945 433.771545,695.671509 444.490875,695.927979 
	C467.916412,696.488525 491.350891,696.683960 514.782288,696.987854 
	C520.945374,697.067810 527.110413,696.999390 534.230774,696.995361 
M83.002655,595.503235 
	C83.355812,595.856873 83.672821,596.258118 84.067314,596.557190 
	C104.901619,612.352356 127.156860,625.663330 150.952042,636.630920 
	C175.989014,648.170898 201.846664,657.235535 228.239685,664.949341 
	C230.100616,665.493286 231.944031,666.978271 233.083130,663.368347 
	C238.441269,646.387695 243.462738,629.251770 249.884995,612.667114 
	C260.274963,585.836426 271.672852,559.396240 282.628021,532.784058 
	C283.899139,529.696228 285.444611,527.001160 283.741821,523.125854 
	C275.253876,503.808624 266.914459,484.415802 259.058472,464.834625 
	C253.256805,450.373932 248.147583,435.628998 242.976151,420.924072 
	C239.264572,410.370270 235.959763,399.673431 232.462631,389.007294 
	C224.639099,391.274231 217.231415,393.258026 209.925888,395.565277 
	C175.965775,406.290680 142.894455,419.095825 112.151054,437.375916 
	C88.822815,451.247009 67.208992,467.201233 51.181026,489.464813 
	C37.365330,508.655426 33.068161,529.218384 44.691357,551.304382 
	C53.906895,568.815430 67.250084,582.717407 83.002655,595.503235 
M391.856537,717.055603 
	C386.086334,716.703308 380.308044,716.449280 374.548004,715.973877 
	C367.331543,715.378296 360.106934,714.781372 352.927399,713.861084 
	C341.388062,712.381714 329.857788,710.793823 318.369263,708.965393 
	C303.503326,706.599365 288.662476,704.060791 273.849609,701.382141 
	C265.765228,699.920105 257.760925,698.015320 249.042618,696.166504 
	C245.539261,713.380554 241.684464,729.773132 238.970428,746.352417 
	C236.084244,763.983398 233.115280,781.739685 232.325928,799.536377 
	C231.521347,817.676514 232.744476,835.976990 234.143936,854.125305 
	C235.626678,873.353821 240.637985,891.816406 250.338852,908.726929 
	C260.236908,925.981140 274.712830,936.501282 294.898773,937.941650 
	C309.842651,939.008057 324.376099,936.521301 338.693054,932.163879 
	C356.648499,926.699219 373.655609,919.203125 390.022949,910.048096 
	C410.689911,898.488098 429.999420,884.985046 448.344604,870.085632 
	C457.544952,862.613403 466.532196,854.866455 475.392090,846.992004 
	C480.300415,842.629639 484.747406,837.748169 489.290192,833.212646 
	C487.282318,830.639099 485.855927,828.614075 484.232727,826.761536 
	C472.060974,812.870239 459.728638,799.117554 447.692902,785.109863 
	C438.952148,774.937012 430.328308,764.641113 422.134216,754.028076 
	C415.039215,744.838623 408.803986,734.988403 401.807251,725.718201 
	C399.347351,722.458923 395.755127,720.054382 391.856537,717.055603 
M610.509460,725.953491 
	C584.205200,763.158325 556.347839,799.120667 525.190857,832.508972 
	C525.660583,833.035706 526.083313,833.549194 526.546387,834.023315 
	C542.264526,850.113220 559.199768,864.777649 576.914978,878.663940 
	C593.742676,891.854675 611.289673,903.863586 630.090027,913.926331 
	C653.162903,926.275940 676.941772,936.527100 703.712036,938.266357 
	C714.657227,938.977417 725.100098,937.966431 734.793152,933.459839 
	C752.356750,925.293762 761.338196,909.697205 768.012329,892.438171 
	C775.359741,873.437744 779.050232,853.509827 779.683228,833.400330 
	C780.364868,811.743347 779.296082,789.960266 777.697815,768.327820 
	C776.653076,754.187866 773.556458,740.170837 770.911438,726.187134 
	C768.866394,715.375671 766.095825,704.701477 763.766296,694.486084 
	C747.177002,697.768433 731.341064,700.999390 715.463379,704.010254 
	C704.216736,706.143005 692.928833,708.071533 681.631165,709.918518 
	C671.505493,711.573975 661.375732,713.304688 651.184692,714.432373 
	C640.289185,715.638245 629.314575,716.118713 618.390015,717.090576 
	C617.189575,717.197327 615.818176,718.229919 615.004333,719.224426 
	C613.458618,721.113159 612.259155,723.285217 610.509460,725.953491 
M399.473328,330.021088 
	C426.548584,291.713165 456.225677,255.512695 488.339294,221.081055 
	C487.024689,219.669998 486.098663,218.506439 485.005707,217.529694 
	C476.019501,209.498993 467.255798,201.192841 457.932831,193.571808 
	C445.107483,183.087677 432.191803,172.651764 418.700134,163.059845 
	C399.053406,149.091980 378.338470,136.861572 355.810730,127.915321 
	C337.566284,120.670044 319.047577,114.776329 299.139160,115.016525 
	C276.361969,115.291328 259.606995,125.536728 249.068939,145.759644 
	C236.872604,169.164825 233.391525,194.654968 232.134445,220.472443 
	C231.192444,239.818909 232.065155,259.202454 235.012802,278.406494 
	C237.595978,295.235992 240.114532,312.082794 243.163223,328.830658 
	C244.988602,338.858124 247.777786,348.710114 250.123856,358.599182 
	C252.169525,358.127228 253.592712,357.770142 255.028152,357.472260 
	C268.634155,354.648438 282.184387,351.504578 295.865021,349.105072 
	C311.514496,346.360229 327.259521,344.127808 343.002197,341.956635 
	C356.493469,340.095947 370.091522,338.962006 383.536865,336.838715 
	C388.956451,335.982849 396.196381,338.376892 399.473328,330.021088 
M762.983032,353.396057 
	C766.037842,337.834961 769.502747,322.340118 772.031006,306.693909 
	C774.515259,291.320007 776.497070,275.831177 777.837463,260.318329 
	C778.698242,250.356766 778.259033,240.252045 777.929749,230.227005 
	C777.587036,219.790939 777.064758,209.331131 775.932861,198.956787 
	C773.571533,177.313843 768.572937,156.286484 755.805542,138.235107 
	C751.130798,131.625671 744.729431,125.692749 737.943237,121.236679 
	C724.530823,112.429565 709.034912,112.739769 693.980225,115.270287 
	C677.009460,118.122879 660.786926,123.900497 645.215271,131.351944 
	C627.124817,140.008759 609.819580,150.044052 593.700378,161.946396 
	C580.899902,171.398209 568.424927,181.319443 556.173157,191.475830 
	C547.778687,198.434586 540.034241,206.175491 531.959534,213.523117 
	C529.229736,216.007095 526.378174,218.357147 523.711121,220.657196 
	C526.700500,224.239410 529.093567,227.183807 531.567566,230.058594 
	C544.034607,244.545334 557.002563,258.632751 568.884399,273.583710 
	C584.383057,293.085663 598.985901,313.298401 614.123901,333.090759 
	C615.228699,334.535248 617.467712,335.648102 619.315308,335.893921 
	C626.485352,336.848114 633.733826,337.205688 640.909424,338.126129 
	C652.448608,339.606262 663.964478,341.280945 675.469116,343.013611 
	C687.447510,344.817627 699.450012,346.525177 711.353455,348.748505 
	C728.043396,351.865845 744.651550,355.421021 761.405640,358.811371 
	C761.897400,357.300537 762.397705,355.763458 762.983032,353.396057 
M789.033813,392.529510 
	C787.479492,392.024628 785.874878,391.636749 784.380371,390.992981 
	C779.896606,389.061462 778.236328,391.025177 776.924133,395.289032 
	C773.223450,407.314331 769.490295,419.364746 764.962463,431.093536 
	C752.712585,462.825287 740.044312,494.395508 727.040283,527.299194 
	C747.634399,570.324951 766.262756,616.213806 780.966736,663.742798 
	C788.408997,661.523254 795.306946,659.594910 802.122925,657.410889 
	C831.665466,647.944641 860.182007,636.028137 887.423279,621.158936 
	C894.748230,617.160767 902.129272,613.141296 908.950500,608.368347 
	C926.633545,595.995300 944.078003,583.276062 957.003723,565.514587 
	C966.033203,553.106873 973.260071,539.989807 972.959900,524.065125 
	C972.728821,511.806671 967.392822,501.295593 960.827332,491.344757 
	C949.726624,474.520416 934.359680,462.072479 918.148010,450.641479 
	C889.417358,430.383209 857.744141,415.881134 824.779236,404.102448 
	C813.247742,399.982147 801.448242,396.612000 789.033813,392.529510 
M711.120300,556.728210 
	C688.340027,602.366882 662.565796,646.314941 634.549744,690.211243 
	C640.914734,689.708618 645.864075,689.565918 650.738220,688.885071 
	C663.867310,687.051086 677.016418,685.278442 690.062439,682.948853 
	C711.124878,679.187866 732.107605,674.981750 753.133057,671.011475 
	C756.550354,670.366211 756.288696,668.378845 755.442749,665.855774 
	C752.481750,657.024292 749.961975,648.026306 746.609924,639.348328 
	C737.958557,616.951233 729.066040,594.644958 720.007751,572.409119 
	C717.722351,566.799072 714.453064,561.589905 711.120300,556.728210 
M290.500031,577.000122 
	C279.459839,607.404968 268.407471,637.805359 257.398285,668.221436 
	C256.301819,671.250732 257.346405,672.513245 260.760986,673.117859 
	C271.696045,675.053833 282.504730,677.701050 293.436584,679.658264 
	C306.488007,681.994995 319.582275,684.155579 332.721100,685.923096 
	C345.254150,687.609192 357.870148,688.675537 370.445099,690.055908 
	C372.528839,690.284729 374.589081,690.727356 377.889282,691.275208 
	C348.449738,647.132568 322.996979,602.488708 299.441406,556.032715 
	C296.445374,563.168701 293.679871,569.755615 290.500031,577.000122 
M556.505005,756.957397 
	C565.436096,744.961487 574.367188,732.965576 583.298279,720.969666 
	C583.044983,720.519653 582.791626,720.069702 582.538330,719.619690 
	C576.171204,720.076965 569.810852,720.747375 563.435669,720.950623 
	C545.898621,721.509766 528.354675,722.249084 510.814758,722.218140 
	C489.142853,722.179932 467.472168,721.441345 445.801331,720.987793 
	C444.651764,720.963745 443.507385,720.750793 442.357544,720.669067 
	C438.181793,720.372314 434.004791,720.094116 428.395111,719.710938 
	C453.419250,753.821228 479.251373,785.226868 507.765961,815.429138 
	C524.030457,795.891846 540.018494,776.686584 556.505005,756.957397 
M468.862732,331.107605 
	C501.267487,331.406403 533.672913,331.651337 566.076355,332.057587 
	C571.417664,332.124542 576.750061,332.898834 583.423340,333.458313 
	C558.947083,299.800110 533.882385,268.679688 505.975647,239.315414 
	C477.869354,268.964996 452.537048,299.858490 429.104797,331.999939 
	C440.497894,331.999939 451.546478,332.022278 462.594818,331.977539 
	C464.397156,331.970245 466.198334,331.666748 468.862732,331.107605 
M725.915222,464.339386 
	C735.778381,437.505798 745.641541,410.672241 755.609131,383.554565 
	C715.295654,373.800842 675.524658,367.215698 636.084290,363.027039 
	C661.705566,407.226410 687.153198,451.126251 712.663025,495.133331 
	C716.693604,485.672394 721.097229,475.335815 725.915222,464.339386 
M294.095673,484.410400 
	C295.824341,488.400574 297.553009,492.390717 299.487762,496.856628 
	C322.851196,450.655212 348.077209,406.136444 377.158966,362.626526 
	C336.077942,367.283447 296.412781,373.329834 257.125549,382.856140 
	C258.084290,386.036774 258.808075,388.694794 259.683960,391.301697 
	C264.782623,406.476746 269.564636,421.770660 275.136078,436.770966 
	C280.996094,452.548309 287.622925,468.040833 294.095673,484.410400 
z"/>
<path fill="#00D8FF" opacity="1.000000" stroke="none" 
	d="
M580.000000,1063.000000 
	C580.000000,1089.126831 580.000000,1114.753662 580.000000,1140.988281 
	C573.466614,1140.988281 567.355347,1141.110596 561.258057,1140.873657 
	C560.182007,1140.831787 558.759888,1139.503174 558.179688,1138.407715 
	C547.735596,1118.688965 537.412170,1098.906250 527.026550,1079.156494 
	C523.412231,1072.283203 519.699646,1065.461548 515.067139,1058.850708 
	C515.067139,1086.039062 515.067139,1113.227417 515.067139,1140.704834 
	C509.949219,1140.704834 505.357361,1140.704834 500.381165,1140.704834 
	C500.381165,1106.336670 500.381165,1071.964355 500.381165,1037.009277 
	C506.233215,1037.009277 512.023376,1036.814697 517.781982,1037.154297 
	C519.123352,1037.233398 520.835999,1038.870972 521.568054,1040.228271 
	C530.138000,1056.116333 538.534912,1072.097900 547.015869,1088.034302 
	C552.684509,1098.686035 558.414673,1109.305176 564.976807,1119.724609 
	C564.976807,1092.355347 564.976807,1064.986084 564.976807,1037.310791 
	C570.018372,1037.310791 574.610229,1037.310791 580.000000,1037.310791 
	C580.000000,1045.658081 580.000000,1054.079102 580.000000,1063.000000 
z"/>
<path fill="#00D8FF" opacity="1.000000" stroke="none" 
	d="
M129.293671,1127.683350 
	C131.522705,1132.101074 133.545609,1136.202515 135.908218,1140.992676 
	C130.953796,1140.992676 126.677849,1141.235596 122.458145,1140.855103 
	C121.066193,1140.729492 119.312477,1139.271851 118.587097,1137.949829 
	C113.121964,1127.989868 107.852318,1117.922119 102.562347,1107.866577 
	C99.248711,1101.567749 94.095840,1098.171875 86.973640,1098.024780 
	C81.180779,1097.905273 75.383476,1098.000488 69.153175,1098.000488 
	C69.153175,1112.378784 69.153175,1126.307495 69.153175,1140.615234 
	C64.010330,1140.615234 59.301605,1140.615234 54.293579,1140.615234 
	C54.293579,1106.275391 54.293579,1072.019043 54.293579,1037.530884 
	C54.842731,1037.375122 55.450668,1037.043091 56.051399,1037.055786 
	C69.986740,1037.347290 83.945824,1037.270752 97.849220,1038.110962 
	C112.103363,1038.972656 121.814499,1050.345459 122.063538,1064.739868 
	C122.217773,1073.654907 121.239822,1081.950195 113.591011,1087.862183 
	C111.399078,1089.556274 108.986839,1090.965454 106.446220,1092.658081 
	C118.511711,1101.145386 122.516266,1115.081421 129.293671,1127.683350 
M101.354965,1080.906616 
	C106.840233,1076.139771 106.141838,1069.698975 105.968208,1063.462524 
	C105.834938,1058.676147 103.658653,1055.051514 99.328926,1052.722534 
	C89.771683,1047.581909 79.540268,1049.284912 69.397339,1049.114502 
	C69.397339,1061.333496 69.397339,1073.038330 69.397339,1085.000000 
	C76.276642,1085.000000 82.804649,1085.455078 89.227585,1084.830322 
	C93.108055,1084.452637 96.825424,1082.398560 101.354965,1080.906616 
z"/>
<path fill="#00D8FF" opacity="1.000000" stroke="none" 
	d="
M208.331390,1076.765625 
	C212.786560,1085.928955 214.547028,1095.519165 213.684067,1105.800781 
	C194.359985,1105.800781 174.977020,1105.800781 155.668228,1105.800781 
	C154.235016,1117.418945 163.624573,1128.883545 175.183029,1131.071655 
	C186.368210,1133.189087 196.567612,1130.388916 206.639587,1126.119995 
	C207.538101,1125.739258 208.456314,1125.394775 209.388870,1125.110596 
	C209.670532,1125.024658 210.031540,1125.198975 210.985245,1125.360962 
	C210.985245,1128.492065 211.200256,1131.770996 210.869797,1134.993896 
	C210.752579,1136.137207 209.519745,1137.738037 208.437195,1138.124756 
	C192.238647,1143.910278 175.899582,1146.491211 159.732117,1138.247192 
	C148.440506,1132.489624 142.570694,1122.535645 141.194092,1110.333008 
	C140.463989,1103.861328 141.066177,1097.073730 142.115143,1090.598633 
	C144.906830,1073.365723 158.389374,1062.339722 175.393234,1061.035889 
	C184.643875,1060.326538 193.501251,1061.800537 200.794632,1068.036865 
	C203.589645,1070.426758 205.688538,1073.630737 208.331390,1076.765625 
M172.502808,1095.000000 
	C181.587891,1095.000000 190.672974,1095.000000 199.760406,1095.000000 
	C199.441940,1082.254883 191.734482,1072.422363 178.155991,1072.906250 
	C165.182068,1073.368652 156.283035,1081.817627 156.079590,1095.000000 
	C161.222397,1095.000000 166.363495,1095.000000 172.502808,1095.000000 
z"/>
<path fill="#00D8FF" opacity="1.000000" stroke="none" 
	d="
M905.929932,1061.000000 
	C925.097229,1061.121216 937.873718,1074.465332 939.025513,1092.798828 
	C939.189819,1095.413574 939.650024,1098.010864 940.003418,1100.612183 
	C940.557678,1104.691040 938.973511,1106.145752 934.720276,1106.087524 
	C918.725403,1105.868408 902.725708,1105.999878 886.727844,1106.000000 
	C884.924255,1106.000000 883.120728,1106.000000 881.293030,1106.000000 
	C882.308594,1120.400146 888.799377,1128.405151 901.533081,1131.052368 
	C912.562073,1133.345093 922.591614,1130.264648 932.536987,1126.176514 
	C933.443115,1125.804077 934.346008,1125.417114 935.274902,1125.111450 
	C935.556824,1125.018799 935.921143,1125.176514 936.988342,1125.317505 
	C936.988342,1128.431885 937.253967,1131.700806 936.857422,1134.887329 
	C936.699158,1136.158936 935.303406,1137.907593 934.089905,1138.321289 
	C917.831482,1143.865234 901.449158,1146.519043 885.340820,1138.022705 
	C874.123474,1132.106079 868.417847,1122.110962 867.157349,1109.840942 
	C866.557190,1103.999756 867.369873,1097.966553 867.948303,1092.060059 
	C869.797913,1073.170898 886.711243,1060.212036 905.929932,1061.000000 
M897.504517,1095.000000 
	C906.928040,1095.000000 916.351501,1095.000000 925.791626,1095.000000 
	C925.164246,1081.940552 917.997375,1072.450317 904.273682,1072.910522 
	C891.225830,1073.348389 882.415833,1081.662476 882.044800,1095.000000 
	C886.868408,1095.000000 891.688110,1095.000000 897.504517,1095.000000 
z"/>
<path fill="#00D8FF" opacity="1.000000" stroke="none" 
	d="
M627.054688,1143.000000 
	C616.600098,1143.211548 608.330811,1140.084595 603.922668,1130.477539 
	C598.989319,1119.725708 599.716858,1109.082153 607.651550,1100.228760 
	C612.770996,1094.516479 620.412781,1092.359131 628.108948,1092.072388 
	C636.560364,1091.757202 645.032654,1092.000488 653.417358,1092.000488 
	C654.973999,1081.952026 645.869751,1072.100830 636.058716,1073.125732 
	C626.449280,1074.129395 616.895386,1075.664673 607.235474,1076.977661 
	C607.235474,1074.356201 607.235474,1070.450562 607.235474,1066.525635 
	C616.570984,1062.919922 626.043457,1060.456055 636.066650,1061.012939 
	C653.447327,1061.978516 665.857483,1069.026978 666.844360,1089.607178 
	C667.652893,1106.467896 667.009094,1123.398438 667.009094,1140.651978 
	C663.259399,1140.651978 658.877563,1140.651978 654.215637,1140.651978 
	C654.076355,1137.954346 653.944092,1135.393188 653.748657,1131.607788 
	C646.538086,1140.530151 637.880615,1143.933350 627.054688,1143.000000 
M616.857727,1109.698486 
	C613.150024,1118.915161 615.864014,1128.079834 623.274109,1130.662964 
	C631.968445,1133.693848 640.284180,1131.990356 646.498474,1125.653076 
	C652.606934,1119.423584 654.928345,1111.181641 653.654053,1101.786743 
	C645.238281,1102.224854 637.231323,1102.036987 629.455811,1103.287720 
	C625.222778,1103.968628 621.382507,1107.091431 616.857727,1109.698486 
z"/>
<path fill="#00D8FF" opacity="1.000000" stroke="none" 
	d="
M259.122375,1092.000000 
	C266.916260,1092.000000 274.226288,1092.000000 281.521027,1092.000000 
	C281.853882,1079.402222 273.507568,1073.505493 262.384369,1072.929199 
	C252.588135,1072.421631 243.562653,1074.889282 234.372894,1079.177979 
	C234.372894,1074.687378 234.372894,1070.652344 234.372894,1066.384521 
	C247.934250,1061.867798 261.744080,1058.385498 276.066895,1063.137817 
	C286.272400,1066.523926 292.578827,1074.093994 293.804138,1084.567993 
	C295.031372,1095.058105 294.761230,1105.732788 294.969055,1116.329956 
	C295.125458,1124.303711 295.000000,1132.282959 295.000000,1140.628174 
	C290.645691,1140.628174 286.602478,1140.628174 282.223114,1140.628174 
	C282.088013,1137.652954 281.956543,1134.757568 281.781006,1130.891968 
	C272.061615,1144.151245 259.129669,1144.659912 245.555283,1141.941650 
	C236.417206,1140.111938 231.018295,1133.745361 229.521851,1124.853271 
	C227.402618,1112.260620 229.471481,1100.745361 243.361786,1095.072266 
	C248.084473,1093.143433 253.525681,1092.973633 259.122375,1092.000000 
M249.168579,1105.367188 
	C247.760208,1106.665649 246.033737,1107.751343 244.998932,1109.299561 
	C240.720200,1115.701294 242.053802,1122.771973 245.789368,1126.968750 
	C250.070099,1131.777832 256.364410,1132.862549 262.601685,1131.649170 
	C277.034790,1128.841431 281.948212,1115.520752 281.530426,1101.027710 
	C270.907318,1102.386230 260.408966,1103.728882 249.168579,1105.367188 
z"/>
<path fill="#00D8FF" opacity="1.000000" stroke="none" 
	d="
M804.311157,1130.711182 
	C795.803101,1108.205688 787.513611,1086.030640 779.061157,1063.419678 
	C783.927612,1063.419678 788.609802,1063.419678 793.655762,1063.419678 
	C801.289917,1083.911133 809.021606,1104.664185 817.189941,1126.589600 
	C819.046509,1122.020630 820.602783,1118.483643 821.934021,1114.863892 
	C827.740845,1099.074707 833.470459,1083.257324 839.258423,1067.461304 
	C840.330994,1064.534302 841.770874,1062.313110 845.659424,1062.911743 
	C848.568542,1063.359375 851.601868,1063.000122 855.694214,1063.000122 
	C845.808289,1089.428589 836.183411,1115.159180 826.517334,1141.000000 
	C822.079041,1141.000000 817.885071,1140.638184 813.782227,1141.094727 
	C809.012695,1141.625488 806.826721,1139.552124 805.935730,1135.222412 
	C805.641541,1133.792847 805.008118,1132.433350 804.311157,1130.711182 
z"/>
<path fill="#00D8FF" opacity="1.000000" stroke="none" 
	d="
M693.000000,1102.000000 
	C693.000000,1092.537720 693.000000,1083.575317 693.000000,1074.251587 
	C689.993835,1074.101318 687.393005,1073.971191 684.397339,1073.821533 
	C684.397339,1070.403564 684.397339,1067.023804 684.397339,1063.225464 
	C686.983643,1063.099854 689.586609,1062.973511 692.794922,1062.817749 
	C692.794922,1055.764160 692.794922,1048.702637 692.794922,1041.328369 
	C697.647278,1041.328369 701.905701,1041.328369 706.785400,1041.328369 
	C706.785400,1048.243164 706.785400,1055.300415 706.785400,1062.784668 
	C715.644226,1062.784668 723.903870,1062.784668 732.579712,1062.784668 
	C732.579712,1066.588135 732.579712,1069.960083 732.579712,1073.778809 
	C724.368286,1073.778809 716.103821,1073.778809 707.000122,1073.778809 
	C707.000122,1075.948120 707.000122,1077.690186 707.000122,1079.432251 
	C707.000061,1092.426636 707.117004,1105.422363 706.961426,1118.414917 
	C706.845459,1128.100220 710.428406,1129.266235 718.492493,1129.929932 
	C723.093262,1130.308594 727.750671,1129.998535 732.686584,1129.998535 
	C732.686584,1133.674805 732.686584,1136.936035 732.686584,1140.910522 
	C722.982483,1140.362915 713.090515,1142.816162 703.492981,1138.977661 
	C695.114075,1135.626587 693.699829,1128.099731 693.096130,1120.484497 
	C692.623657,1114.524536 693.000488,1108.497192 693.000000,1102.000000 
z"/>
<path fill="#00D8FF" opacity="1.000000" stroke="none" 
	d="
M373.890747,1077.047241 
	C367.383820,1075.698120 360.926727,1073.586060 354.359589,1073.156616 
	C340.030792,1072.219482 331.548401,1082.698364 330.256226,1095.171387 
	C329.544769,1102.038940 330.733154,1109.278320 332.095703,1116.145508 
	C334.239227,1126.948730 348.071625,1133.814575 359.467163,1131.203003 
	C364.524017,1130.044189 369.447601,1128.309326 374.448944,1126.896851 
	C375.276062,1126.663330 376.451752,1126.360962 377.021240,1126.746948 
	C379.277557,1128.276855 378.184967,1138.005493 375.575958,1139.104004 
	C360.580994,1145.418823 335.689240,1146.627808 323.169495,1129.584595 
	C315.691101,1119.404175 313.958344,1107.624390 315.381531,1095.403931 
	C316.419342,1086.492676 319.381134,1078.170776 325.914276,1071.611694 
	C335.873505,1061.612915 348.403198,1059.963623 361.558105,1061.415161 
	C366.338043,1061.942383 370.955688,1063.940552 375.786652,1065.988037 
	C375.247559,1070.154785 374.569153,1073.600952 373.890747,1077.047241 
z"/>
<path fill="#00D8FF" opacity="1.000000" stroke="none" 
	d="
M430.924622,1063.000000 
	C433.716980,1063.000000 436.021210,1063.000000 438.660706,1063.000000 
	C438.660706,1066.620850 438.660706,1069.880737 438.660706,1073.759155 
	C430.111725,1073.759155 421.392090,1073.759155 412.000000,1073.759155 
	C412.000000,1080.286865 411.880676,1086.222656 412.027679,1092.151855 
	C412.253387,1101.254761 412.563721,1110.357910 413.020691,1119.451782 
	C413.487152,1128.735352 414.746307,1128.574585 424.370941,1129.891113 
	C428.927734,1130.514526 433.640411,1129.998291 438.639526,1129.998291 
	C438.639526,1133.704468 438.639526,1137.075928 438.639526,1141.443970 
	C429.770203,1140.949463 420.978577,1141.110840 412.410004,1139.806641 
	C402.980194,1138.371704 399.515350,1132.078247 399.146423,1121.761597 
	C398.587524,1106.132324 399.000397,1090.468262 399.000397,1074.210205 
	C395.728149,1074.210205 392.678253,1074.210205 389.318115,1074.210205 
	C389.318115,1070.353394 389.318115,1067.089722 389.318115,1063.218384 
	C392.252838,1063.218384 395.310181,1063.218384 398.787933,1063.218384 
	C398.787933,1055.698486 398.787933,1048.767090 398.787933,1041.419434 
	C403.252594,1041.419434 407.293274,1041.419434 411.781708,1041.419434 
	C411.781708,1048.307373 411.781708,1055.236084 411.781708,1063.000000 
	C418.271973,1063.000000 424.354218,1063.000000 430.924622,1063.000000 
z"/>
<path fill="#00D8FF" opacity="1.000000" stroke="none" 
	d="
M749.000000,1073.040527 
	C749.000000,1069.579834 749.000000,1066.611816 749.000000,1063.324463 
	C753.656555,1063.324463 757.916260,1063.324463 762.590393,1063.324463 
	C762.590393,1088.937012 762.590393,1114.645752 762.590393,1140.678345 
	C758.338196,1140.678345 754.078308,1140.678345 749.000000,1140.678345 
	C749.000000,1118.359375 749.000000,1095.946289 749.000000,1073.040527 
z"/>
<path fill="#00D8FF" opacity="1.000000" stroke="none" 
	d="
M749.000122,1038.143311 
	C749.100891,1036.232788 749.201477,1034.800537 749.313171,1033.210571 
	C753.894531,1033.210571 758.131104,1033.210571 762.975586,1033.210571 
	C762.975586,1037.979858 763.168823,1042.571289 762.827881,1047.122559 
	C762.750977,1048.148560 760.891052,1049.718750 759.714905,1049.854858 
	C756.455261,1050.232422 753.123352,1049.985718 749.000000,1049.985718 
	C749.000000,1046.069946 749.000000,1042.345825 749.000122,1038.143311 
z"/>
<path fill="#00D8FF" opacity="1.000000" stroke="none" 
	d="
M374.067566,1077.346680 
	C374.569153,1073.600952 375.247559,1070.154785 375.984192,1066.296875 
	C377.728424,1067.858398 379.009155,1076.167114 377.546539,1077.594727 
	C376.974243,1078.153320 375.375580,1077.660156 374.067566,1077.346680 
z"/>
<path fill="#47704C" opacity="1.000000" stroke="none" 
	d="
M533.752686,696.997192 
	C527.110413,696.999390 520.945374,697.067810 514.782288,696.987854 
	C491.350891,696.683960 467.916412,696.488525 444.490875,695.927979 
	C433.771545,695.671509 423.059937,694.780945 412.372162,693.860657 
	C410.810089,693.726196 408.906738,692.133545 407.993439,690.689270 
	C390.581329,663.154907 372.642242,635.923401 356.180237,607.827698 
	C342.175507,583.925903 330.027649,558.941284 316.770660,534.592285 
	C313.653229,528.866577 313.880249,524.147339 316.777924,518.349731 
	C336.878204,478.133179 358.200287,438.618195 382.602264,400.819366 
	C390.684357,388.300201 398.652252,375.700928 407.071472,363.411743 
	C408.554474,361.247070 411.945312,359.345612 414.572571,359.179413 
	C430.757599,358.155396 446.970734,357.400574 463.185150,357.055603 
	C489.276947,356.500519 515.377625,356.051605 541.473267,356.114777 
	C555.516785,356.148773 569.558960,357.313599 583.598694,358.027557 
	C588.042480,358.253540 592.547913,358.303192 596.887573,359.143738 
	C599.383423,359.627167 602.544678,360.929352 603.804871,362.891541 
	C619.371033,387.128387 635.370483,411.132935 649.795166,436.044617 
	C666.059082,464.132599 680.792175,493.105469 696.324646,521.620667 
	C698.022339,524.737366 698.073975,527.174316 696.373779,530.305481 
	C680.173462,560.142639 664.676453,590.377563 647.841309,619.849182 
	C634.292786,643.567200 619.171814,666.386780 604.758423,689.611145 
	C602.646484,693.013977 599.372192,693.878540 595.669495,694.007812 
	C577.128723,694.655273 558.588196,695.312012 540.050415,696.037842 
	C538.101013,696.114136 536.170227,696.664795 533.752686,696.997192 
M469.479156,442.890503 
	C454.044861,449.658295 441.529022,459.922638 431.760406,473.702118 
	C416.622467,495.055634 412.629486,518.983215 417.354218,543.977478 
	C421.243744,564.553345 431.881897,581.836914 448.604645,595.241577 
	C471.572845,613.652527 497.418610,618.921448 525.743164,613.033325 
	C545.901489,608.842834 562.379822,598.331360 575.319519,582.220947 
	C593.553955,559.518433 599.341309,533.785461 593.159607,505.634216 
	C586.837769,476.845184 569.620300,456.386292 543.125793,443.523743 
	C531.044434,437.658447 518.101135,435.415985 505.022614,435.253479 
	C493.074158,435.105042 481.308777,437.904480 469.479156,442.890503 
z"/>
<path fill="#47704C" opacity="1.000000" stroke="none" 
	d="
M82.747482,595.249023 
	C67.250084,582.717407 53.906895,568.815430 44.691357,551.304382 
	C33.068161,529.218384 37.365330,508.655426 51.181026,489.464813 
	C67.208992,467.201233 88.822815,451.247009 112.151054,437.375916 
	C142.894455,419.095825 175.965775,406.290680 209.925888,395.565277 
	C217.231415,393.258026 224.639099,391.274231 232.462631,389.007294 
	C235.959763,399.673431 239.264572,410.370270 242.976151,420.924072 
	C248.147583,435.628998 253.256805,450.373932 259.058472,464.834625 
	C266.914459,484.415802 275.253876,503.808624 283.741821,523.125854 
	C285.444611,527.001160 283.899139,529.696228 282.628021,532.784058 
	C271.672852,559.396240 260.274963,585.836426 249.884995,612.667114 
	C243.462738,629.251770 238.441269,646.387695 233.083130,663.368347 
	C231.944031,666.978271 230.100616,665.493286 228.239685,664.949341 
	C201.846664,657.235535 175.989014,648.170898 150.952042,636.630920 
	C127.156860,625.663330 104.901619,612.352356 84.067314,596.557190 
	C83.672821,596.258118 83.355812,595.856873 82.747482,595.249023 
z"/>
<path fill="#47704C" opacity="1.000000" stroke="none" 
	d="
M392.268250,717.157593 
	C395.755127,720.054382 399.347351,722.458923 401.807251,725.718201 
	C408.803986,734.988403 415.039215,744.838623 422.134216,754.028076 
	C430.328308,764.641113 438.952148,774.937012 447.692902,785.109863 
	C459.728638,799.117554 472.060974,812.870239 484.232727,826.761536 
	C485.855927,828.614075 487.282318,830.639099 489.290192,833.212646 
	C484.747406,837.748169 480.300415,842.629639 475.392090,846.992004 
	C466.532196,854.866455 457.544952,862.613403 448.344604,870.085632 
	C429.999420,884.985046 410.689911,898.488098 390.022949,910.048096 
	C373.655609,919.203125 356.648499,926.699219 338.693054,932.163879 
	C324.376099,936.521301 309.842651,939.008057 294.898773,937.941650 
	C274.712830,936.501282 260.236908,925.981140 250.338852,908.726929 
	C240.637985,891.816406 235.626678,873.353821 234.143936,854.125305 
	C232.744476,835.976990 231.521347,817.676514 232.325928,799.536377 
	C233.115280,781.739685 236.084244,763.983398 238.970428,746.352417 
	C241.684464,729.773132 245.539261,713.380554 249.042618,696.166504 
	C257.760925,698.015320 265.765228,699.920105 273.849609,701.382141 
	C288.662476,704.060791 303.503326,706.599365 318.369263,708.965393 
	C329.857788,710.793823 341.388062,712.381714 352.927399,713.861084 
	C360.106934,714.781372 367.331543,715.378296 374.548004,715.973877 
	C380.308044,716.449280 386.086334,716.703308 392.268250,717.157593 
z"/>
<path fill="#47704C" opacity="1.000000" stroke="none" 
	d="
M610.712646,725.646606 
	C612.259155,723.285217 613.458618,721.113159 615.004333,719.224426 
	C615.818176,718.229919 617.189575,717.197327 618.390015,717.090576 
	C629.314575,716.118713 640.289185,715.638245 651.184692,714.432373 
	C661.375732,713.304688 671.505493,711.573975 681.631165,709.918518 
	C692.928833,708.071533 704.216736,706.143005 715.463379,704.010254 
	C731.341064,700.999390 747.177002,697.768433 763.766296,694.486084 
	C766.095825,704.701477 768.866394,715.375671 770.911438,726.187134 
	C773.556458,740.170837 776.653076,754.187866 777.697815,768.327820 
	C779.296082,789.960266 780.364868,811.743347 779.683228,833.400330 
	C779.050232,853.509827 775.359741,873.437744 768.012329,892.438171 
	C761.338196,909.697205 752.356750,925.293762 734.793152,933.459839 
	C725.100098,937.966431 714.657227,938.977417 703.712036,938.266357 
	C676.941772,936.527100 653.162903,926.275940 630.090027,913.926331 
	C611.289673,903.863586 593.742676,891.854675 576.914978,878.663940 
	C559.199768,864.777649 542.264526,850.113220 526.546387,834.023315 
	C526.083313,833.549194 525.660583,833.035706 525.190857,832.508972 
	C556.347839,799.120667 584.205200,763.158325 610.712646,725.646606 
z"/>
<path fill="#47704C" opacity="1.000000" stroke="none" 
	d="
M399.217041,330.292480 
	C396.196381,338.376892 388.956451,335.982849 383.536865,336.838715 
	C370.091522,338.962006 356.493469,340.095947 343.002197,341.956635 
	C327.259521,344.127808 311.514496,346.360229 295.865021,349.105072 
	C282.184387,351.504578 268.634155,354.648438 255.028152,357.472260 
	C253.592712,357.770142 252.169525,358.127228 250.123856,358.599182 
	C247.777786,348.710114 244.988602,338.858124 243.163223,328.830658 
	C240.114532,312.082794 237.595978,295.235992 235.012802,278.406494 
	C232.065155,259.202454 231.192444,239.818909 232.134445,220.472443 
	C233.391525,194.654968 236.872604,169.164825 249.068939,145.759644 
	C259.606995,125.536728 276.361969,115.291328 299.139160,115.016525 
	C319.047577,114.776329 337.566284,120.670044 355.810730,127.915321 
	C378.338470,136.861572 399.053406,149.091980 418.700134,163.059845 
	C432.191803,172.651764 445.107483,183.087677 457.932831,193.571808 
	C467.255798,201.192841 476.019501,209.498993 485.005707,217.529694 
	C486.098663,218.506439 487.024689,219.669998 488.339294,221.081055 
	C456.225677,255.512695 426.548584,291.713165 399.217041,330.292480 
z"/>
<path fill="#47704C" opacity="1.000000" stroke="none" 
	d="
M762.940552,353.811218 
	C762.397705,355.763458 761.897400,357.300537 761.405640,358.811371 
	C744.651550,355.421021 728.043396,351.865845 711.353455,348.748505 
	C699.450012,346.525177 687.447510,344.817627 675.469116,343.013611 
	C663.964478,341.280945 652.448608,339.606262 640.909424,338.126129 
	C633.733826,337.205688 626.485352,336.848114 619.315308,335.893921 
	C617.467712,335.648102 615.228699,334.535248 614.123901,333.090759 
	C598.985901,313.298401 584.383057,293.085663 568.884399,273.583710 
	C557.002563,258.632751 544.034607,244.545334 531.567566,230.058594 
	C529.093567,227.183807 526.700500,224.239410 523.711121,220.657196 
	C526.378174,218.357147 529.229736,216.007095 531.959534,213.523117 
	C540.034241,206.175491 547.778687,198.434586 556.173157,191.475830 
	C568.424927,181.319443 580.899902,171.398209 593.700378,161.946396 
	C609.819580,150.044052 627.124817,140.008759 645.215271,131.351944 
	C660.786926,123.900497 677.009460,118.122879 693.980225,115.270287 
	C709.034912,112.739769 724.530823,112.429565 737.943237,121.236679 
	C744.729431,125.692749 751.130798,131.625671 755.805542,138.235107 
	C768.572937,156.286484 773.571533,177.313843 775.932861,198.956787 
	C777.064758,209.331131 777.587036,219.790939 777.929749,230.227005 
	C778.259033,240.252045 778.698242,250.356766 777.837463,260.318329 
	C776.497070,275.831177 774.515259,291.320007 772.031006,306.693909 
	C769.502747,322.340118 766.037842,337.834961 762.940552,353.811218 
z"/>
<path fill="#47704C" opacity="1.000000" stroke="none" 
	d="
M789.402466,392.714417 
	C801.448242,396.612000 813.247742,399.982147 824.779236,404.102448 
	C857.744141,415.881134 889.417358,430.383209 918.148010,450.641479 
	C934.359680,462.072479 949.726624,474.520416 960.827332,491.344757 
	C967.392822,501.295593 972.728821,511.806671 972.959900,524.065125 
	C973.260071,539.989807 966.033203,553.106873 957.003723,565.514587 
	C944.078003,583.276062 926.633545,595.995300 908.950500,608.368347 
	C902.129272,613.141296 894.748230,617.160767 887.423279,621.158936 
	C860.182007,636.028137 831.665466,647.944641 802.122925,657.410889 
	C795.306946,659.594910 788.408997,661.523254 780.966736,663.742798 
	C766.262756,616.213806 747.634399,570.324951 727.040283,527.299194 
	C740.044312,494.395508 752.712585,462.825287 764.962463,431.093536 
	C769.490295,419.364746 773.223450,407.314331 776.924133,395.289032 
	C778.236328,391.025177 779.896606,389.061462 784.380371,390.992981 
	C785.874878,391.636749 787.479492,392.024628 789.402466,392.714417 
z"/>
<path fill="#47704C" opacity="1.000000" stroke="none" 
	d="
M711.378174,556.462402 
	C714.453064,561.589905 717.722351,566.799072 720.007751,572.409119 
	C729.066040,594.644958 737.958557,616.951233 746.609924,639.348328 
	C749.961975,648.026306 752.481750,657.024292 755.442749,665.855774 
	C756.288696,668.378845 756.550354,670.366211 753.133057,671.011475 
	C732.107605,674.981750 711.124878,679.187866 690.062439,682.948853 
	C677.016418,685.278442 663.867310,687.051086 650.738220,688.885071 
	C645.864075,689.565918 640.914734,689.708618 634.549744,690.211243 
	C662.565796,646.314941 688.340027,602.366882 711.378174,556.462402 
z"/>
<path fill="#47704C" opacity="1.000000" stroke="none" 
	d="
M290.707214,576.671326 
	C293.679871,569.755615 296.445374,563.168701 299.441406,556.032715 
	C322.996979,602.488708 348.449738,647.132568 377.889282,691.275208 
	C374.589081,690.727356 372.528839,690.284729 370.445099,690.055908 
	C357.870148,688.675537 345.254150,687.609192 332.721100,685.923096 
	C319.582275,684.155579 306.488007,681.994995 293.436584,679.658264 
	C282.504730,677.701050 271.696045,675.053833 260.760986,673.117859 
	C257.346405,672.513245 256.301819,671.250732 257.398285,668.221436 
	C268.407471,637.805359 279.459839,607.404968 290.707214,576.671326 
z"/>
<path fill="#47704C" opacity="1.000000" stroke="none" 
	d="
M556.255737,757.219360 
	C540.018494,776.686584 524.030457,795.891846 507.765961,815.429138 
	C479.251373,785.226868 453.419250,753.821228 428.395111,719.710938 
	C434.004791,720.094116 438.181793,720.372314 442.357544,720.669067 
	C443.507385,720.750793 444.651764,720.963745 445.801331,720.987793 
	C467.472168,721.441345 489.142853,722.179932 510.814758,722.218140 
	C528.354675,722.249084 545.898621,721.509766 563.435669,720.950623 
	C569.810852,720.747375 576.171204,720.076965 582.538330,719.619690 
	C582.791626,720.069702 583.044983,720.519653 583.298279,720.969666 
	C574.367188,732.965576 565.436096,744.961487 556.255737,757.219360 
z"/>
<path fill="#47704C" opacity="1.000000" stroke="none" 
	d="
M468.431396,331.303894 
	C466.198334,331.666748 464.397156,331.970245 462.594818,331.977539 
	C451.546478,332.022278 440.497894,331.999939 429.104797,331.999939 
	C452.537048,299.858490 477.869354,268.964996 505.975647,239.315414 
	C533.882385,268.679688 558.947083,299.800110 583.423340,333.458313 
	C576.750061,332.898834 571.417664,332.124542 566.076355,332.057587 
	C533.672913,331.651337 501.267487,331.406403 468.431396,331.303894 
z"/>
<path fill="#47704C" opacity="1.000000" stroke="none" 
	d="
M725.708008,464.669312 
	C721.097229,475.335815 716.693604,485.672394 712.663025,495.133331 
	C687.153198,451.126251 661.705566,407.226410 636.084290,363.027039 
	C675.524658,367.215698 715.295654,373.800842 755.609131,383.554565 
	C745.641541,410.672241 735.778381,437.505798 725.708008,464.669312 
z"/>
<path fill="#47704C" opacity="1.000000" stroke="none" 
	d="
M294.005188,484.034119 
	C287.622925,468.040833 280.996094,452.548309 275.136078,436.770966 
	C269.564636,421.770660 264.782623,406.476746 259.683960,391.301697 
	C258.808075,388.694794 258.084290,386.036774 257.125549,382.856140 
	C296.412781,373.329834 336.077942,367.283447 377.158966,362.626526 
	C348.077209,406.136444 322.851196,450.655212 299.487762,496.856628 
	C297.553009,492.390717 295.824341,488.400574 294.005188,484.034119 
z"/>
<path fill="#47704C" opacity="1.000000" stroke="none" 
	d="
M100.985527,1081.002197 
	C96.825424,1082.398560 93.108055,1084.452637 89.227585,1084.830322 
	C82.804649,1085.455078 76.276642,1085.000000 69.397339,1085.000000 
	C69.397339,1073.038330 69.397339,1061.333496 69.397339,1049.114502 
	C79.540268,1049.284912 89.771683,1047.581909 99.328926,1052.722534 
	C103.658653,1055.051514 105.834938,1058.676147 105.968208,1063.462524 
	C106.141838,1069.698975 106.840233,1076.139771 100.985527,1081.002197 
z"/>
<path fill="#47704C" opacity="1.000000" stroke="none" 
	d="
M172.003693,1095.000000 
	C166.363495,1095.000000 161.222397,1095.000000 156.079590,1095.000000 
	C156.283035,1081.817627 165.182068,1073.368652 178.155991,1072.906250 
	C191.734482,1072.422363 199.441940,1082.254883 199.760406,1095.000000 
	C190.672974,1095.000000 181.587891,1095.000000 172.003693,1095.000000 
z"/>
<path fill="#47704C" opacity="1.000000" stroke="none" 
	d="
M897.006165,1095.000000 
	C891.688110,1095.000000 886.868408,1095.000000 882.044800,1095.000000 
	C882.415833,1081.662476 891.225830,1073.348389 904.273682,1072.910522 
	C917.997375,1072.450317 925.164246,1081.940552 925.791626,1095.000000 
	C916.351501,1095.000000 906.928040,1095.000000 897.006165,1095.000000 
z"/>
<path fill="#47704C" opacity="1.000000" stroke="none" 
	d="
M617.111450,1109.405762 
	C621.382507,1107.091431 625.222778,1103.968628 629.455811,1103.287720 
	C637.231323,1102.036987 645.238281,1102.224854 653.654053,1101.786743 
	C654.928345,1111.181641 652.606934,1119.423584 646.498474,1125.653076 
	C640.284180,1131.990356 631.968445,1133.693848 623.274109,1130.662964 
	C615.864014,1128.079834 613.150024,1118.915161 617.111450,1109.405762 
z"/>
<path fill="#47704C" opacity="1.000000" stroke="none" 
	d="
M249.539612,1105.219360 
	C260.408966,1103.728882 270.907318,1102.386230 281.530426,1101.027710 
	C281.948212,1115.520752 277.034790,1128.841431 262.601685,1131.649170 
	C256.364410,1132.862549 250.070099,1131.777832 245.789368,1126.968750 
	C242.053802,1122.771973 240.720200,1115.701294 244.998932,1109.299561 
	C246.033737,1107.751343 247.760208,1106.665649 249.539612,1105.219360 
z"/>
<path fill="#00D8FF" opacity="1.000000" stroke="none" 
	d="
M469.790588,442.655884 
	C481.308777,437.904480 493.074158,435.105042 505.022614,435.253479 
	C518.101135,435.415985 531.044434,437.658447 543.125793,443.523743 
	C569.620300,456.386292 586.837769,476.845184 593.159607,505.634216 
	C599.341309,533.785461 593.553955,559.518433 575.319519,582.220947 
	C562.379822,598.331360 545.901489,608.842834 525.743164,613.033325 
	C497.418610,618.921448 471.572845,613.652527 448.604645,595.241577 
	C431.881897,581.836914 421.243744,564.553345 417.354218,543.977478 
	C412.629486,518.983215 416.622467,495.055634 431.760406,473.702118 
	C441.529022,459.922638 454.044861,449.658295 469.790588,442.655884 
z"/>
</svg>